<svg width="18" height="17" viewBox="0 0 18 17" fill="none" xmlns="http://www.w3.org/2000/svg">
<path d="M13.5 4.71876L16.3381 7.43272C17.1202 8.18056 16.5909 9.50001 15.5088 9.50001H14.7C14.0373 9.50001 13.5 10.0373 13.5 10.7V15.3C13.5 15.9628 12.9627 16.5 12.3 16.5H10.7C10.0373 16.5 9.5 15.9628 9.5 15.3V12.5C9.5 11.9477 9.05228 11.5 8.5 11.5V11.5C7.94772 11.5 7.5 11.9477 7.5 12.5V15.3C7.5 15.9628 6.96274 16.5 6.3 16.5H4.7C4.03726 16.5 3.5 15.9628 3.5 15.3V10.7C3.5 10.0373 2.96274 9.50001 2.3 9.50001H1.76462C0.648079 9.50001 0.136706 8.10881 0.987444 7.38568L8.26377 1.20081C8.73224 0.802603 9.42591 0.822914 9.87029 1.24785L11.5 2.80626M13.5 4.71876L11.5 2.80626M13.5 4.71876V2.49999C13.5 1.94771 13.0523 1.49999 12.5 1.49999V1.49999C11.9477 1.5 11.5 1.94771 11.5 2.49999V2.80626" stroke="#1D1D1D" stroke-opacity="0.33" stroke-linejoin="round"/>
</svg>
