<svg width="20" height="19" viewBox="0 0 20 19" fill="none" xmlns="http://www.w3.org/2000/svg">
<path d="M14.913 2.44L15.2726 2.09258V2.09258L14.913 2.44ZM15.6087 3.16L15.2491 3.50742V3.50742L15.6087 3.16ZM13.5217 4.6L13.1622 4.94742V4.94742L13.5217 4.6ZM12.8261 6.76L12.4665 7.10742L12.8261 6.76ZM13.5217 7.48L13.1622 7.82742L13.5217 7.48ZM13.8876 7.85868L13.528 8.2061L13.8876 7.85868ZM16.0542 4.8589L15.6946 4.51148L16.0542 4.8589ZM17.8189 2.32754L18.246 2.06756L17.8189 2.32754ZM18.4449 3.35586L18.0178 3.61584L18.4449 3.35586ZM18.784 6.67061L19.2571 6.83261L18.784 6.67061ZM18.6752 6.98837L18.2022 6.82638L18.6752 6.98837ZM16.0542 3.6211L15.6946 3.96852L16.0542 3.6211ZM7.89772 7.54086L7.53814 7.19344L7.89772 7.54086ZM4.97467 9.29763L4.85917 8.81115L4.97467 9.29763ZM14.6655 2.18382L14.306 2.53125L14.6655 2.18382ZM12.4114 6.33083L12.0519 6.67826L12.4114 6.33083ZM1 12.6087V12.1876H0V12.6087H1ZM2.39371 10.4243L5.09017 9.7841L4.85917 8.81115L2.16271 9.45134L2.39371 10.4243ZM8.0607 8.09176L8.2573 7.88828L7.53814 7.19344L7.34154 7.39692L8.0607 8.09176ZM6.5 15H13.5217V14H6.5V15ZM14 14.5V16.8787H15V14.5H14ZM18 16.8787V14.5H17V16.8787H18ZM18 14.5V10.262H17V14.5H18ZM19.1482 7.15037L19.2571 6.83261L18.311 6.50861L18.2022 6.82638L19.1482 7.15037ZM19.5 5.37344V5.33552H18.5V5.37344H19.5ZM18.872 3.09589L18.246 2.06756L17.3918 2.58751L18.0178 3.61584L18.872 3.09589ZM16.315 0.743901L15.3521 0.57088L15.1752 1.55512L16.1381 1.72814L16.315 0.743901ZM14.306 2.53125L14.5535 2.78742L15.2726 2.09258L15.0251 1.8364L14.306 2.53125ZM14.5535 2.78742L15.2491 3.50742L15.9683 2.81258L15.2726 2.09258L14.5535 2.78742ZM15.2491 3.50742L15.6946 3.96852L16.4138 3.27368L15.9683 2.81258L15.2491 3.50742ZM15.6946 4.51148L15.2491 4.97258L15.9683 5.66742L16.4138 5.20632L15.6946 4.51148ZM14.577 4.97258L13.8813 4.25258L13.1622 4.94742L13.8578 5.66742L14.577 4.97258ZM13.8813 4.25258L13.1857 3.53258L12.4665 4.22742L13.1622 4.94742L13.8813 4.25258ZM11.6304 4.16116V5.63559H12.6304V4.16116H11.6304ZM12.0519 6.67826L12.4665 7.10742L13.1857 6.41258L12.771 5.98341L12.0519 6.67826ZM12.4665 7.10742L13.1622 7.82742L13.8813 7.13258L13.1857 6.41258L12.4665 7.10742ZM13.1622 7.82742L13.528 8.2061L14.2472 7.51125L13.8813 7.13258L13.1622 7.82742ZM14 9.37384V14.5H15V9.37384H14ZM4.5 16C4.07304 16 3.66593 15.8918 3.37744 15.6677C3.10913 15.4592 2.8913 15.1114 2.8913 14.5H1.8913C1.8913 15.3886 2.22782 16.0408 2.76387 16.4573C3.27972 16.8582 3.92696 17 4.5 17V16ZM6 14.5C6 15.1298 5.79592 15.4775 5.55491 15.6784C5.29785 15.8926 4.92571 16 4.5 16V17C5.07429 17 5.70215 16.8574 6.19509 16.4466C6.70408 16.0225 7 15.3702 7 14.5H6ZM4.5 13C4.92571 13 5.29785 13.1074 5.55491 13.3216C5.79592 13.5225 6 13.8702 6 14.5H7C7 13.6298 6.70408 12.9775 6.19509 12.5534C5.70215 12.1426 5.07429 12 4.5 12V13ZM2.8913 14.5C2.8913 13.8886 3.10913 13.5408 3.37744 13.3323C3.66593 13.1082 4.07304 13 4.5 13V12C3.92696 12 3.27972 12.1418 2.76387 12.5427C2.22782 12.9592 1.8913 13.6114 1.8913 14.5H2.8913ZM13.528 8.2061C13.6955 8.37944 13.8237 8.58678 13.904 8.81406L14.8469 8.48097C14.7189 8.11846 14.5143 7.78774 14.2472 7.51125L13.528 8.2061ZM13.1857 3.53258C12.6204 2.94756 11.6304 3.34769 11.6304 4.16116H12.6304C12.6304 4.1753 12.625 4.19704 12.6109 4.21692C12.5984 4.23445 12.5836 4.24438 12.5708 4.24957C12.558 4.25476 12.5405 4.25787 12.5193 4.25394C12.4953 4.24948 12.4763 4.23759 12.4665 4.22742L13.1857 3.53258ZM15.2491 4.97258C15.0654 5.16272 14.7607 5.16272 14.577 4.97258L13.8578 5.66742C14.4346 6.26443 15.3915 6.26444 15.9683 5.66742L15.2491 4.97258ZM15.8043 4.24C15.8043 4.34129 15.765 4.43863 15.6946 4.51148L16.4138 5.20632C16.6643 4.94702 16.8043 4.60056 16.8043 4.24H15.8043ZM15.3521 0.57088C14.9688 0.502018 14.5765 0.628735 14.306 0.908755L15.0251 1.6036C15.0639 1.56342 15.1202 1.54524 15.1752 1.55512L15.3521 0.57088ZM17.901 1.61114C17.4804 1.15767 16.9237 0.853286 16.315 0.743901L16.1381 1.72814C16.5333 1.79915 16.8947 1.99677 17.1678 2.29118L17.901 1.61114ZM18.246 2.06756C18.1466 1.90424 18.031 1.75132 17.901 1.61114L17.1678 2.29118C17.2522 2.3822 17.3273 2.48147 17.3918 2.58751L18.246 2.06756ZM19.1901 3.73118C19.1017 3.51101 18.9953 3.29853 18.872 3.09589L18.0178 3.61584C18.1125 3.77143 18.1942 3.93459 18.262 4.10364L19.1901 3.73118ZM19.5 5.33552C19.5 4.78586 19.3948 4.24128 19.1901 3.73118L18.262 4.10364C18.4192 4.49532 18.5 4.91347 18.5 5.33552H19.5ZM19.2571 6.83261C19.4179 6.36293 19.5 5.86989 19.5 5.37344H18.5C18.5 5.75966 18.4361 6.14322 18.311 6.50861L19.2571 6.83261ZM18.616 8.22732C18.8391 7.89276 19.018 7.53078 19.1482 7.15037L18.2022 6.82638C18.0998 7.12529 17.9593 7.40973 17.784 7.67262L18.616 8.22732ZM13.904 8.81406C13.9675 8.99385 14 9.18315 14 9.37384H15C15 9.06968 14.9482 8.76775 14.8469 8.48097L13.904 8.81406ZM18 10.262C18 9.53782 18.2144 8.82986 18.616 8.22732L17.784 7.67262C17.2728 8.43943 17 9.34039 17 10.262H18ZM15.6946 3.96852C15.765 4.04137 15.8043 4.13871 15.8043 4.24H16.8043C16.8043 3.87944 16.6643 3.53298 16.4138 3.27368L15.6946 3.96852ZM8.2573 7.88828C9.08984 7.02661 10.2366 6.54 11.4348 6.54V5.54C9.96544 5.54 8.5591 6.13674 7.53814 7.19344L8.2573 7.88828ZM17.4142 18.2929C17.7893 17.9178 18 17.4091 18 16.8787H17C17 17.1439 16.8946 17.3983 16.7071 17.5858L17.4142 18.2929ZM5.09017 9.7841C6.22172 9.51545 7.25259 8.92815 8.0607 8.09176L7.34154 7.39692C6.66623 8.09586 5.80477 8.58665 4.85917 8.81115L5.09017 9.7841ZM14.306 0.908755C13.8688 1.36124 13.8688 2.07876 14.306 2.53125L15.0251 1.8364C14.9624 1.77148 14.9624 1.66852 15.0251 1.6036L14.306 0.908755ZM0 12.6087C0 13.9294 1.07062 15 2.3913 15V14C1.62291 14 1 13.3771 1 12.6087H0ZM11.6304 5.63559C11.6304 6.02463 11.7815 6.39847 12.0519 6.67826L12.771 5.98341C12.6808 5.89008 12.6304 5.76537 12.6304 5.63559H11.6304ZM14 16.8787C14 17.4091 14.2107 17.9178 14.5858 18.2929L15.2929 17.5858C15.1054 17.3983 15 17.1439 15 16.8787H14ZM14.5858 18.2929C15.3668 19.0739 16.6332 19.0739 17.4142 18.2929L16.7071 17.5858C16.3166 17.9763 15.6834 17.9763 15.2929 17.5858L14.5858 18.2929ZM1 12.1876C1 11.348 1.57675 10.6183 2.39371 10.4243L2.16271 9.45134C0.894985 9.75232 0 10.8847 0 12.1876H1Z" fill="#1D1D1D" fill-opacity="0.33"/>
</svg>
